<?xml version="1.0" encoding="iso-8859-1"?>
<svg version="1.1" id="Capa_1" xmlns="http://www.w3.org/2000/svg" xmlns:xlink="http://www.w3.org/1999/xlink" x="0px" y="0px"
	 viewBox="0 0 49.74 49.74" style="enable-background:new 0 0 49.74 49.74;" xml:space="preserve">
<path d="M47.678,29.297c-0.242,0.133-0.484,0.266-0.734,0.391c-3.233,1.619-6.691,2.439-10.279,2.439
	c-8.772,0-16.659-4.869-20.584-12.708c-2.532-5.056-3.112-10.847-1.633-16.306l0.615-2.268l-2.061,1.129
	C1.164,8.463-3.373,23.005,2.672,35.081c4.267,8.52,12.839,13.812,22.373,13.812c3.902,0,7.662-0.892,11.176-2.651
	c6.355-3.183,11.069-8.95,12.933-15.822l0.586-2.252L47.678,29.297z"/>
</svg>
