<?xml version="1.0" encoding="iso-8859-1"?>
<!-- Generator: Adobe Illustrator 19.0.0, SVG Export Plug-In . SVG Version: 6.00 Build 0)  -->
<svg version="1.1" id="Layer_1" xmlns="http://www.w3.org/2000/svg" xmlns:xlink="http://www.w3.org/1999/xlink" x="0px" y="0px"
	 viewBox="0 0 511.996 511.996" style="enable-background:new 0 0 511.996 511.996;" xml:space="preserve">
<path style="fill:#434A54;" d="M351.996,85.327H159.998l0,0c-5.883,0-10.664-4.781-10.664-10.664s4.781-10.664,10.664-10.664l0,0
	h74.664c17.672,0,32-14.328,32-32V10.664C266.663,4.773,261.889,0,255.998,0s-10.664,4.773-10.664,10.664v21.335
	c0,5.875-4.789,10.664-10.672,10.664h-74.664l0,0c-17.672,0-32,14.328-32,32s14.328,32,32,32l0,0h191.998
	c5.875,0,10.656,4.781,10.656,10.664s-4.781,10.672-10.656,10.672h-74.655c-17.679,0-32.007,14.32-32.007,32v47.327h21.328v-47.327
	c0-5.883,4.789-10.672,10.68-10.672h74.655c17.672,0,32-14.328,32-32S369.668,85.327,351.996,85.327z"/>
<path style="fill:#F5F7FA;" d="M245.333,506.652c-55.875,0-101.335-45.452-101.335-101.327V298.654
	c0-55.867,45.46-101.327,101.335-101.327h21.328c55.867,0,101.335,45.46,101.335,101.327v106.671
	c0,55.875-45.468,101.327-101.335,101.327H245.333z"/>
<path style="fill:#E6E9ED;" d="M266.661,191.999h-21.328c-58.914,0-106.671,47.749-106.671,106.655v106.671
	c0,58.922,47.757,106.671,106.671,106.671h21.328c58.914,0,106.679-47.749,106.679-106.671V298.654
	C373.34,239.748,325.576,191.999,266.661,191.999z M351.996,405.325c0,22.797-8.874,44.234-24.999,60.344
	c-16.109,16.109-37.531,24.983-60.336,24.983h-21.328c-22.797,0-44.227-8.874-60.344-24.983s-24.992-37.547-24.992-60.344V298.654
	c0-22.781,8.875-44.219,24.992-60.336s37.547-24.992,60.344-24.992h21.328c22.805,0,44.227,8.875,60.336,24.992
	c16.125,16.117,24.999,37.555,24.999,60.336V405.325z"/>
<path style="fill:#5D9CEC;" d="M266.661,245.326c0-5.891-4.773-10.664-10.664-10.664s-10.664,4.773-10.664,10.664v53.328l0,0l0,0
	c0,5.906,4.773,10.672,10.664,10.672c5.89,0,10.664-4.766,10.664-10.672l0,0l0,0V245.326z"/>
<g>
</g>
<g>
</g>
<g>
</g>
<g>
</g>
<g>
</g>
<g>
</g>
<g>
</g>
<g>
</g>
<g>
</g>
<g>
</g>
<g>
</g>
<g>
</g>
<g>
</g>
<g>
</g>
<g>
</g>
</svg>
