<?xml version="1.0" encoding="utf-8"?>
<!-- Generator: Adobe Illustrator 19.0.0, SVG Export Plug-In . SVG Version: 6.00 Build 0)  -->
<svg version="1.1" id="Capa_1" xmlns="http://www.w3.org/2000/svg" xmlns:xlink="http://www.w3.org/1999/xlink" x="0px" y="0px"
	 viewBox="-1280 1281.7 438.3 438.3" style="enable-background:new -1280 1281.7 438.3 438.3;" xml:space="preserve">
<style type="text/css">
	.st0{fill:#EDEDED;}
</style>
<g>
	<path class="st0" d="M-851.2,1581.8c-0.7-3.8-2.3-7-5-9.7c-5.9-5.9-12.8-7.1-20.6-3.7c-20.9,9.7-42.6,14.6-65.1,14.6
		c-28.2,0-54.2-6.9-77.9-20.8c-23.8-13.9-42.6-32.7-56.5-56.5c-13.9-23.8-20.8-49.8-20.8-77.9c0-21.9,4.3-42.7,13-62.4
		c8.7-19.7,21.2-37,37.5-51.8c6.3-5.9,7.7-12.8,4.3-20.6c-3.2-7.8-9-11.5-17.4-11.1c-29.1,1.1-56.7,7.7-82.8,19.6
		c-26.1,11.9-48.5,27.5-67.2,47c-18.7,19.4-33.6,42.4-44.5,68.9c-10.9,26.6-16.4,54.4-16.4,83.5c0,29.7,5.8,58.1,17.4,85.1
		c11.6,27,27.2,50.3,46.8,69.9c19.6,19.6,42.9,35.2,70,46.8c27,11.6,55.4,17.4,85.1,17.4c42.6,0,82-11.6,118.1-34.7
		c36.1-23.1,63-54,80.9-92.6C-851,1589.2-850.6,1585.6-851.2,1581.8z"/>
</g>
</svg>
