<?xml version="1.0" encoding="iso-8859-1"?>
<!-- Generator: Adobe Illustrator 19.0.0, SVG Export Plug-In . SVG Version: 6.00 Build 0)  -->
<svg version="1.1" id="Layer_1" xmlns="http://www.w3.org/2000/svg" xmlns:xlink="http://www.w3.org/1999/xlink" x="0px" y="0px"
	 viewBox="0 0 512.001 512.001" style="enable-background:new 0 0 512.001 512.001;" xml:space="preserve">
<path style="fill:#FF405F;" d="M401.319,261.863l-47.487-47.487L500.942,67.265c14.744-14.744,14.744-38.65,0-53.395l-2.81-2.81
	c-14.744-14.744-38.65-14.744-53.395,0L297.627,158.17l-47.487-47.487c-14.744-14.744-38.65-14.744-53.395,0l-28.332,28.332
	l33.128,171.446l171.446,33.128l28.332-28.332C416.063,300.512,416.063,276.607,401.319,261.863z"/>
<path style="fill:#FB788A;" d="M498.132,11.06c-14.744-14.744-38.65-14.744-53.395,0L297.627,158.17l-47.487-47.487
	c-14.744-14.744-38.65-14.744-53.395,0l-28.333,28.333l33.128,171.446L499.537,12.465L498.132,11.06z"/>
<rect x="41.843" y="206.423" transform="matrix(-0.7071 -0.7071 0.7071 -0.7071 88.2 687.5494)" style="fill:#FBDB80;" width="289.306" height="238.171"/>
<g>
	
		<rect x="-14.421" y="214.737" transform="matrix(-0.7071 0.7071 -0.7071 -0.7071 350.9722 341.9604)" style="fill:#FBBA00;" width="238.171" height="57.863"/>
	
		<rect x="67.412" y="296.58" transform="matrix(-0.7071 0.7071 -0.7071 -0.7071 548.5424 423.8094)" style="fill:#FBBA00;" width="238.171" height="57.863"/>
	
		<rect x="239.397" y="288.249" transform="matrix(-0.7071 -0.7071 0.7071 -0.7071 170.0364 885.0996)" style="fill:#FBBA00;" width="57.863" height="238.171"/>
</g>
<g>
</g>
<g>
</g>
<g>
</g>
<g>
</g>
<g>
</g>
<g>
</g>
<g>
</g>
<g>
</g>
<g>
</g>
<g>
</g>
<g>
</g>
<g>
</g>
<g>
</g>
<g>
</g>
<g>
</g>
</svg>
