<?xml version="1.0" encoding="utf-8"?>
<!-- Generator: Adobe Illustrator 19.0.0, SVG Export Plug-In . SVG Version: 6.00 Build 0)  -->
<svg version="1.1" xmlns="http://www.w3.org/2000/svg" xmlns:xlink="http://www.w3.org/1999/xlink" x="0px" y="0px"
	 viewBox="-1243 1245 512 512" style="enable-background:new -1243 1245 512 512;" xml:space="preserve">
<style type="text/css">
	.st0{display:none;}
	.st1{display:inline;fill:#EF1700;}
	.st2{fill:#F7F72B;}
	.st3{fill:#CCC836;}
	.st4{fill:#4D4D4D;}
</style>
<g id="Layer_2" class="st0">
	<rect x="-1243" y="1245" class="st1" width="512" height="512"/>
</g>
<g id="Layer_1">
	<path class="st2" d="M-731.9,1361.2l1.4,191.1c0.3,42.5-33.9,77.2-76.4,77.5l-212.9,1.6l-8.5,92.6l-55.4-55.8l-35.8-36l-45,0.3
		c-42.5,0.3-77.2-33.9-77.6-76.4l-1.4-191.1c-0.1-15.3,4.2-29.6,11.8-41.6h0c13.5-21.4,37.3-35.7,64.6-35.9l357.7-2.7
		C-766.9,1284.5-732.2,1318.7-731.9,1361.2z"/>
	<g>
		<path class="st3" d="M-1211.4,1556.1l-1.4-191.1c-0.1-15.3,4.2-29.6,11.8-41.6h0c13.5-21.4,37.3-35.7,64.6-35.9l332.6-2.5
			c-1.9-0.1-3.7-0.2-5.6-0.2l-357.7,2.7c-27.2,0.2-51,14.5-64.6,35.9h0c-7.6,12.1-11.9,26.3-11.8,41.6l1.4,191.1
			c0.3,42.5,35,76.7,77.6,76.4l25.1-0.2C-1179.4,1629.7-1211.1,1596.7-1211.4,1556.1z"/>
		<polygon class="st3" points="-1053,1668.2 -1088.8,1632.2 -1119.3,1632.4 -1083.7,1668.2 -1028.3,1724 -1025.7,1695.7 		"/>
	</g>
	<g>
		<path class="st4" d="M-987.6,1507.7c8.9,0,16-7.2,16-16V1356c0-8.9-7.2-16-16-16c-8.9,0-16,7.2-16,16v135.7
			C-1003.6,1500.6-996.4,1507.7-987.6,1507.7z"/>
		<circle class="st4" cx="-987.6" cy="1563.6" r="16"/>
	</g>
</g>
</svg>
