<?xml version="1.0" encoding="iso-8859-1"?>
<!-- Generator: Adobe Illustrator 19.0.0, SVG Export Plug-In . SVG Version: 6.00 Build 0)  -->
<svg version="1.1" id="Layer_1" xmlns="http://www.w3.org/2000/svg" xmlns:xlink="http://www.w3.org/1999/xlink" x="0px" y="0px"
	 viewBox="0 0 491.52 491.52" style="enable-background:new 0 0 491.52 491.52;" xml:space="preserve">
<path style="fill:#3A556A;" d="M301.931,491.284c-5.108-0.01-9.983-2.986-12.204-7.995l-44.333-109.027l-44.779,108.844
	c-3.057,6.803-11.003,9.822-17.717,6.747c-6.74-3.085-9.73-11.088-6.684-17.883l57.049-136.197
	c2.172-4.852,6.963-7.957,12.227-7.946c5.265,0.011,10.044,3.135,12.196,7.996l56.488,136.43c3.019,6.807-0.004,14.798-6.757,17.856
	C305.636,490.914,303.769,491.288,301.931,491.284z"/>
<g>
	<path style="fill:#64798A;" d="M21.361,62.729l449.343,0.923c11.473,0.023,20.793-9.347,20.816-20.927
		c0.024-11.581-9.257-20.987-20.73-21.01L21.448,20.791C9.975,20.768,0.654,30.136,0.631,41.717
		C0.607,53.297,9.888,62.705,21.361,62.729z"/>
	<path style="fill:#64798A;" d="M470.159,329.017l-449.343-0.923C9.344,328.071,0.023,337.44,0,349.02
		c-0.024,11.581,9.257,20.989,20.73,21.012l449.343,0.923c11.473,0.023,20.793-9.346,20.816-20.926
		C490.913,338.449,481.632,329.04,470.159,329.017z"/>
</g>
<rect x="27.65" y="63.188" transform="matrix(-1 -0.002 0.002 -1 491.1228 392.2448)" style="fill:#EBF0F3;" width="436.225" height="265.365"/>
<g>
	
		<rect x="27.902" y="63.189" transform="matrix(-1 -0.002 0.002 -1 491.8834 141.5459)" style="fill:#E1E6E9;" width="436.225" height="14.664"/>
	
		<rect x="27.393" y="313.909" transform="matrix(-1 -0.002 0.002 -1 490.3518 642.9847)" style="fill:#E1E6E9;" width="436.225" height="14.664"/>
</g>
<path style="fill:#3A556A;" d="M269.768,0.332l-47.213-0.096c-1.996-0.004-3.617,1.625-3.622,3.641l-0.036,17.32l54.442,0.112
	l0.036-17.32C273.38,1.973,271.763,0.337,269.768,0.332z"/>
<path style="fill:#E56353;" d="M395.182,151.228c-2.451-2.769-6.671-3.039-9.447-0.58l-82.968,73.433l-40.86-11.691
	c-2.219-0.627-4.61-0.075-6.32,1.466l-59.785,53.941l-36.736-24.445c-2.026-1.362-4.667-1.482-6.837-0.341l-54.088,28.573
	c-3.269,1.72-4.517,5.778-2.788,9.047c1.72,3.259,5.746,4.538,9.047,2.786l50.564-26.707l37.758,25.113
	c1.366,0.906,2.969,1.255,4.509,1.07c1.334-0.162,2.626-0.722,3.679-1.674l60.885-54.933l40.822,11.677
	c2.198,0.612,4.56,0.091,6.272-1.424l85.712-75.862C397.37,158.225,397.632,153.996,395.182,151.228z"/>
<path style="fill:#44C4A1;" d="M378.297,90.327c-2.68-2.555-6.916-2.447-9.464,0.222l-82.256,86.304l-32.769-24.881
	c-1.441-1.108-3.33-1.696-5.087-1.273c-1.81,0.28-3.418,1.292-4.456,2.786l-51.294,73.871l-34.948-21.554
	c-2.874-1.769-6.605-1.125-8.722,1.492l-53.241,65.95c-2.321,2.88-1.873,7.093,0.997,9.414c1.469,1.183,3.283,1.649,5.012,1.441
	c1.67-0.202,3.265-1.026,4.403-2.438l49.536-61.367l35.329,21.788c3.016,1.857,6.973,1.045,9.015-1.88l50.927-73.344l31.976,24.275
	c2.715,2.051,6.541,1.747,8.887-0.714l86.378-90.63C381.075,97.112,380.967,92.876,378.297,90.327z"/>
<path style="fill:#E1E6E9;" d="M403.544,295.217l-320.437-0.659l0.401-195.257c0.005-2.467,2.006-4.459,4.472-4.454
	c2.466,0.005,4.458,2.005,4.453,4.472l-0.382,186.332l311.512,0.64c2.467,0.004,4.458,2.005,4.454,4.472
	C408.011,293.23,406.011,295.222,403.544,295.217z"/>
</svg>
