<?xml version="1.0" encoding="iso-8859-1"?>
<svg version="1.1" id="Layer_1" xmlns="http://www.w3.org/2000/svg" xmlns:xlink="http://www.w3.org/1999/xlink" x="0px" y="0px"
	 viewBox="0 0 512 512" style="enable-background:new 0 0 512 512;" xml:space="preserve">
<g>
	<g>
		<g>
			<path d="M256.001,129.374c-69.823,0-126.627,56.805-126.627,126.626S186.179,382.626,256,382.626
				c69.822,0.001,126.626-56.803,126.626-126.626C382.626,186.179,325.822,129.374,256.001,129.374z"/>
			<path d="M256,95.553c10.793,0,19.543-8.75,19.543-19.543V19.543C275.543,8.75,266.793,0,256,0
				c-10.793,0-19.543,8.75-19.543,19.543V76.01C236.457,86.803,245.207,95.553,256,95.553z"/>
			<path d="M383.272,148.272c5,0,10.003-1.909,13.818-5.725l39.929-39.929c7.632-7.631,7.632-20.005,0-27.638
				c-7.63-7.632-20.004-7.632-27.638,0l-39.929,39.927c-7.632,7.632-7.632,20.005,0,27.638
				C373.269,146.363,378.271,148.272,383.272,148.272z"/>
			<path d="M492.457,236.457H435.99c-10.793,0-19.543,8.75-19.543,19.543c0,10.793,8.75,19.543,19.543,19.543h56.467
				c10.793,0,19.543-8.75,19.543-19.543C512,245.207,503.251,236.457,492.457,236.457z"/>
			<path d="M397.091,369.453c-7.631-7.632-20.005-7.632-27.638,0c-7.632,7.632-7.632,20.005,0,27.638l39.929,39.927
				c3.816,3.816,8.818,5.725,13.818,5.725c5,0,10.003-1.907,13.818-5.725c7.632-7.632,7.632-20.005,0-27.638L397.091,369.453z"/>
			<path d="M256,416.447c-10.793,0-19.543,8.75-19.543,19.543v56.467c0,10.793,8.75,19.543,19.543,19.543
				c10.793,0,19.543-8.75,19.543-19.543V435.99C275.543,425.197,266.793,416.447,256,416.447z"/>
			<path d="M114.91,369.453l-39.929,39.929c-7.632,7.631-7.632,20.005,0,27.638c3.816,3.816,8.816,5.725,13.818,5.725
				c5,0,10.003-1.909,13.818-5.725l39.929-39.927c7.632-7.632,7.632-20.005,0-27.638S122.542,361.821,114.91,369.453z"/>
			<path d="M95.553,256c0-10.793-8.75-19.543-19.543-19.543H19.543C8.75,236.457,0,245.207,0,256
				c0,10.793,8.75,19.543,19.543,19.543H76.01C86.803,275.543,95.553,266.793,95.553,256z"/>
			<path d="M114.91,142.547c3.816,3.816,8.818,5.725,13.819,5.725c5,0,10.003-1.909,13.818-5.723c7.632-7.632,7.632-20.005,0-27.638
				l-39.926-39.93c-7.632-7.632-20.005-7.631-27.638,0c-7.632,7.632-7.632,20.005,0,27.638L114.91,142.547z"/>
		</g>
	</g>
</g>
</svg>
